<svg width="86" height="25" viewBox="0 0 86 25" fill="none" xmlns="http://www.w3.org/2000/svg">
<path d="M0.560547 19.9336C0.186849 19.9336 0 19.7422 0 19.3594C0 18.8763 0.00911458 18.3978 0.0273438 17.9238C0.0455729 17.4408 0.0592448 16.9622 0.0683594 16.4883C0.0865885 15.431 0.10026 14.3783 0.109375 13.3301C0.127604 12.2728 0.136719 11.2201 0.136719 10.1719C0.136719 9.16016 0.132161 8.14844 0.123047 7.13672C0.113932 6.125 0.10026 5.11328 0.0820312 4.10156C0.0729167 3.64583 0.0592448 3.18555 0.0410156 2.7207C0.0227865 2.25586 0.0136719 1.79557 0.0136719 1.33984C0.0136719 0.957031 0.200521 0.765625 0.574219 0.765625H5.70117C7.23242 0.765625 8.67253 0.984375 10.0215 1.42188C11.3796 1.85938 12.5599 2.55664 13.5625 3.51367C14.5651 4.46159 15.3034 5.71029 15.7773 7.25977C16.1146 8.37174 16.2832 9.50195 16.2832 10.6504C16.2832 12.5189 15.8594 14.1504 15.0117 15.5449C14.1732 16.9303 13.0247 18.0104 11.5664 18.7852C10.1172 19.5508 8.47656 19.9336 6.64453 19.9336H0.560547ZM3.51367 16.6387H6.04297C8.07552 16.6387 9.69792 16.1055 10.9102 15.0391C12.1315 13.9635 12.7422 12.3822 12.7422 10.2949C12.7422 9.11003 12.4915 8.04818 11.9902 7.10938C11.4889 6.16146 10.7871 5.41406 9.88477 4.86719C8.98242 4.32031 7.92513 4.04688 6.71289 4.04688H3.52734C3.53646 5.01302 3.54102 5.98372 3.54102 6.95898C3.55013 7.93424 3.55469 8.90951 3.55469 9.88477C3.55469 12.127 3.54102 14.3783 3.51367 16.6387ZM17.2434 19.9336C17.1158 19.9336 16.979 19.9154 16.8332 19.8789C16.6874 19.8333 16.6145 19.724 16.6145 19.5508C16.6145 19.4779 16.6281 19.4049 16.6555 19.332C16.6828 19.2591 16.7102 19.1908 16.7375 19.127C17.5396 17.3952 18.3326 15.6634 19.1164 13.9316C19.9094 12.1999 20.6887 10.459 21.4543 8.70898C22.0832 7.26888 22.7076 5.82878 23.3273 4.38867C23.9471 2.93945 24.5852 1.50391 25.2414 0.0820312C25.2687 0.0273438 25.3143 0 25.3781 0C25.4419 0 25.4875 0.0273438 25.5148 0.0820312C26.1711 1.50391 26.8091 2.93945 27.4289 4.38867C28.0487 5.82878 28.673 7.26888 29.302 8.70898C30.0676 10.459 30.8423 12.1999 31.6262 13.9316C32.4191 15.6634 33.2167 17.3952 34.0187 19.127C34.0461 19.1908 34.0734 19.2591 34.1008 19.332C34.1281 19.4049 34.1418 19.4779 34.1418 19.5508C34.1418 19.724 34.0689 19.8333 33.923 19.8789C33.7772 19.9154 33.6405 19.9336 33.5129 19.9336H30.7512C30.5233 19.9336 30.3501 19.8197 30.2316 19.5918C30.1587 19.446 30.0904 19.291 30.0266 19.127C29.9628 18.9629 29.899 18.8079 29.8352 18.6621C29.6346 18.2064 29.4387 17.7415 29.2473 17.2676C29.065 16.7936 28.869 16.3288 28.6594 15.873C28.632 15.8001 28.5819 15.7637 28.509 15.7637H21.7414C21.6685 15.7637 21.6184 15.8001 21.591 15.873C21.3723 16.3288 21.1626 16.7936 20.9621 17.2676C20.7707 17.7415 20.5702 18.2109 20.3605 18.6758C20.2967 18.8216 20.2284 18.9766 20.1555 19.1406C20.0917 19.3047 20.0187 19.4596 19.9367 19.6055C19.8182 19.8242 19.6496 19.9336 19.4309 19.9336H17.2434ZM22.8762 12.9062H27.4289C27.0643 11.9948 26.6952 11.0879 26.3215 10.1855C25.9478 9.27409 25.5741 8.36263 25.2004 7.45117C24.8176 8.36263 24.4302 9.27409 24.0383 10.1855C23.6555 11.0879 23.2681 11.9948 22.8762 12.9062ZM35.6762 19.9336C35.3025 19.9336 35.1156 19.7422 35.1156 19.3594C35.1156 18.8581 35.1247 18.3568 35.143 17.8555C35.1703 17.3542 35.1885 16.8529 35.1977 16.3516C35.225 15.2943 35.2432 14.2415 35.2523 13.1934C35.2615 12.1361 35.266 11.0833 35.266 10.0352C35.266 8.70443 35.2569 7.3737 35.2387 6.04297C35.2204 4.71224 35.1931 3.38607 35.1566 2.06445V1.92773C35.1566 1.85482 35.1658 1.69076 35.184 1.43555C35.2113 1.18034 35.2979 1.05273 35.4437 1.05273C35.5714 1.05273 35.7081 1.14388 35.8539 1.32617C35.9997 1.50846 36.1046 1.64062 36.1684 1.72266C37.572 3.6276 38.9255 5.57812 40.2289 7.57422C41.5323 9.5612 42.8676 11.5208 44.2348 13.4531C44.2803 13.5169 44.3259 13.5488 44.3715 13.5488C44.4171 13.5488 44.4626 13.5169 44.5082 13.4531C45.9118 11.5117 47.279 9.54297 48.6098 7.54688C49.9496 5.55078 51.335 3.5957 52.766 1.68164C52.8298 1.59961 52.9346 1.47201 53.0805 1.29883C53.2354 1.11654 53.3721 1.02539 53.4906 1.02539C53.6456 1.02539 53.7322 1.15299 53.7504 1.4082C53.7686 1.66341 53.7777 1.82747 53.7777 1.90039V2.03711C53.7413 3.36784 53.7139 4.70312 53.6957 6.04297C53.6775 7.3737 53.6684 8.70443 53.6684 10.0352C53.6684 11.0833 53.6729 12.1361 53.682 13.1934C53.6911 14.2415 53.7094 15.2943 53.7367 16.3516C53.7549 16.8529 53.7732 17.3542 53.7914 17.8555C53.8096 18.3568 53.8187 18.8581 53.8187 19.3594C53.8187 19.7422 53.6319 19.9336 53.2582 19.9336H50.9066C50.7061 19.9336 50.5648 19.888 50.4828 19.7969C50.4099 19.7057 50.3643 19.569 50.3461 19.3867C50.337 19.2591 50.3324 19.1224 50.3324 18.9766C50.3324 18.8216 50.3324 18.6758 50.3324 18.5391L50.3051 16.5566C50.2868 15.5632 50.2732 14.5697 50.2641 13.5762C50.2549 12.5827 50.2504 11.5892 50.2504 10.5957C50.2504 10.5775 50.2458 10.5228 50.2367 10.4316C50.2367 10.3314 50.2139 10.2812 50.1684 10.2812C50.1319 10.2812 50.0909 10.3177 50.0453 10.3906C49.9997 10.4544 49.9678 10.4954 49.9496 10.5137C49.3572 11.4251 48.7693 12.3457 48.1859 13.2754C47.6117 14.196 47.0284 15.1165 46.4359 16.0371C46.199 16.4108 45.962 16.7891 45.725 17.1719C45.488 17.5547 45.2419 17.9284 44.9867 18.293C44.932 18.3659 44.8682 18.4479 44.7953 18.5391C44.7224 18.6211 44.6312 18.6621 44.5219 18.6621C44.4216 18.6621 44.3305 18.6257 44.2484 18.5527C44.1755 18.4707 44.1117 18.3932 44.057 18.3203C43.8292 18.0013 43.6013 17.6777 43.3734 17.3496C43.1547 17.0215 42.9359 16.6934 42.7172 16.3652C42.0792 15.4355 41.4411 14.5013 40.8031 13.5625C40.1742 12.6146 39.5316 11.6803 38.8754 10.7598C38.8663 10.7415 38.8389 10.7051 38.7934 10.6504C38.7478 10.5866 38.7068 10.5547 38.6703 10.5547C38.6247 10.5547 38.5974 10.6003 38.5883 10.6914C38.5792 10.7826 38.5746 10.8372 38.5746 10.8555C38.5746 11.8216 38.5701 12.7878 38.5609 13.7539C38.5518 14.7109 38.5381 15.6725 38.5199 16.6387L38.4926 18.5664C38.4926 18.694 38.4926 18.8307 38.4926 18.9766C38.5017 19.1224 38.4971 19.2591 38.4789 19.3867C38.4607 19.569 38.4151 19.7057 38.3422 19.7969C38.2693 19.888 38.128 19.9336 37.9184 19.9336H35.6762ZM55.3805 18.1289C55.3805 17.6185 55.5855 17.1855 55.9957 16.8301C56.4059 16.4746 56.857 16.2969 57.3492 16.2969C57.8323 16.2969 58.2744 16.4655 58.6754 16.8027C59.0855 17.14 59.2906 17.5638 59.2906 18.0742C59.2906 18.612 59.0901 19.0586 58.6891 19.4141C58.288 19.7604 57.8277 19.9336 57.3082 19.9336C56.8069 19.9336 56.3603 19.765 55.9684 19.4277C55.5764 19.0905 55.3805 18.6576 55.3805 18.1289ZM62.9441 7.5332C63.2814 7.5332 63.4682 7.69727 63.5047 8.02539C63.532 8.20768 63.5548 8.38997 63.573 8.57227C63.5913 8.75456 63.6095 8.93685 63.6277 9.11914C63.6277 9.13737 63.6368 9.19206 63.6551 9.2832C63.6733 9.36523 63.7052 9.40625 63.7508 9.40625C63.7964 9.40625 63.8374 9.37891 63.8738 9.32422C63.9194 9.26953 63.9513 9.22852 63.9695 9.20117C64.5164 8.49935 65.1818 7.99349 65.9656 7.68359C66.7495 7.3737 67.5743 7.21875 68.4402 7.21875C69.1512 7.21875 69.8029 7.36914 70.3953 7.66992C70.9969 7.96159 71.4799 8.38086 71.8445 8.92773C72.2091 9.46549 72.3914 10.1081 72.3914 10.8555C72.3914 12.2682 72.4051 13.6855 72.4324 15.1074C72.4689 16.5293 72.4871 17.9466 72.4871 19.3594C72.4871 19.7422 72.3003 19.9336 71.9266 19.9336H69.7801C69.4337 19.9336 69.2469 19.7467 69.2195 19.373C69.1922 18.9811 69.1831 18.5892 69.1922 18.1973C69.2013 17.7962 69.2013 17.3997 69.1922 17.0078C69.1831 16.1693 69.1785 15.3353 69.1785 14.5059C69.1785 13.6764 69.1785 12.847 69.1785 12.0176C69.1785 11.3704 68.9917 10.8874 68.618 10.5684C68.2443 10.2402 67.7475 10.0762 67.1277 10.0762C66.353 10.0762 65.715 10.3132 65.2137 10.7871C64.7215 11.2611 64.3523 11.8444 64.1063 12.5371C63.8693 13.2298 63.7508 13.9089 63.7508 14.5742C63.7508 15.3763 63.7462 16.1784 63.7371 16.9805C63.728 17.7734 63.7189 18.571 63.7098 19.373C63.7098 19.7467 63.5229 19.9336 63.1492 19.9336H61.0027C60.629 19.9336 60.4422 19.7422 60.4422 19.3594C60.4422 18.849 60.4467 18.3431 60.4559 17.8418C60.4741 17.3314 60.4878 16.8255 60.4969 16.3242C60.5242 14.1914 60.5379 12.0586 60.5379 9.92578V8.09375C60.5379 7.72005 60.7247 7.5332 61.0984 7.5332H62.9441ZM79.5586 24.7324C77.5625 24.7324 75.8991 24.0215 74.5684 22.5996C74.5228 22.5449 74.4818 22.4902 74.4453 22.4355C74.4089 22.3809 74.3906 22.3171 74.3906 22.2441C74.3906 22.153 74.459 22.0072 74.5957 21.8066C74.7415 21.6061 74.8965 21.401 75.0605 21.1914C75.2337 20.9909 75.3522 20.8542 75.416 20.7812C75.4798 20.7174 75.5436 20.6582 75.6074 20.6035C75.6712 20.5579 75.7487 20.5352 75.8398 20.5352C75.9128 20.5352 75.9766 20.5488 76.0312 20.5762C76.0951 20.6035 76.1543 20.6354 76.209 20.6719C76.6921 20.9544 77.1751 21.1686 77.6582 21.3145C78.1504 21.4694 78.679 21.5469 79.2441 21.5469C79.7546 21.5469 80.265 21.4785 80.7754 21.3418C81.2858 21.2051 81.7142 20.9635 82.0605 20.6172C82.4069 20.2799 82.5801 19.806 82.5801 19.1953C82.5801 19.1497 82.5801 19.0358 82.5801 18.8535C82.5892 18.6712 82.5664 18.5801 82.5117 18.5801C82.4753 18.5801 82.4388 18.5983 82.4023 18.6348C82.375 18.6712 82.3522 18.6986 82.334 18.7168C81.3952 19.6921 80.2422 20.1797 78.875 20.1797C77.7448 20.1797 76.7695 19.8789 75.9492 19.2773C75.1289 18.6758 74.4954 17.901 74.0488 16.9531C73.6113 15.9961 73.3926 14.9935 73.3926 13.9453V13.6719C73.3926 12.9154 73.5202 12.1589 73.7754 11.4023C74.0306 10.6458 74.3952 9.94857 74.8691 9.31055C75.3522 8.67253 75.9264 8.16211 76.5918 7.7793C77.2663 7.39648 78.0137 7.20508 78.834 7.20508C79.4811 7.20508 80.1055 7.29167 80.707 7.46484C81.3086 7.63802 81.86 7.93424 82.3613 8.35352C82.416 8.4082 82.4753 8.43555 82.5391 8.43555C82.6302 8.43555 82.6803 8.36263 82.6895 8.2168C82.6986 8.06185 82.7305 7.91146 82.7852 7.76562C82.8398 7.61068 82.972 7.5332 83.1816 7.5332H85.2188C85.5924 7.5332 85.7793 7.72005 85.7793 8.09375C85.7793 8.54036 85.7747 8.99154 85.7656 9.44727C85.7656 9.90299 85.7656 10.3587 85.7656 10.8145C85.7656 12.1908 85.7793 13.5671 85.8066 14.9434C85.8431 16.3197 85.8613 17.7005 85.8613 19.0859C85.8613 20.2344 85.5605 21.2324 84.959 22.0801C84.3665 22.9277 83.5918 23.5794 82.6348 24.0352C81.6777 24.5 80.6523 24.7324 79.5586 24.7324ZM79.7773 17.2812C80.4701 17.2812 81.0488 17.0625 81.5137 16.625C81.9785 16.1875 82.3249 15.6634 82.5527 15.0527V12.1953C82.5527 12.1589 82.5208 12.0677 82.457 11.9219C82.3932 11.7669 82.3522 11.6758 82.334 11.6484C82.0605 11.1107 81.6868 10.6868 81.2129 10.377C80.7389 10.0671 80.2012 9.91211 79.5996 9.91211C78.9342 9.91211 78.3828 10.0853 77.9453 10.4316C77.5078 10.7689 77.1797 11.2064 76.9609 11.7441C76.7513 12.2819 76.6465 12.8516 76.6465 13.4531C76.6465 14.0456 76.7695 14.638 77.0156 15.2305C77.2617 15.8229 77.6172 16.3151 78.082 16.707C78.5469 17.0898 79.112 17.2812 79.7773 17.2812Z" fill="#3F0909"/>
</svg>
