<svg width="81" height="23" viewBox="0 0 81 23" fill="none" xmlns="http://www.w3.org/2000/svg">
<path d="M-5.00679e-06 4.76837e-07H7.104C8.416 4.76837e-07 9.552 0.224 10.512 0.672C11.472 1.12 12.256 1.736 12.864 2.52C13.472 3.288 13.92 4.192 14.208 5.232C14.512 6.272 14.664 7.384 14.664 8.568C14.664 9.752 14.512 10.864 14.208 11.904C13.92 12.944 13.472 13.856 12.864 14.64C12.256 15.408 11.472 16.016 10.512 16.464C9.552 16.912 8.416 17.136 7.104 17.136H-5.00679e-06V4.76837e-07ZM2.99999 14.688H5.95199C7.12 14.688 8.072 14.536 8.808 14.232C9.56 13.912 10.144 13.48 10.56 12.936C10.992 12.376 11.28 11.728 11.424 10.992C11.584 10.24 11.664 9.432 11.664 8.568C11.664 7.704 11.584 6.904 11.424 6.168C11.28 5.416 10.992 4.768 10.56 4.224C10.144 3.664 9.56 3.232 8.808 2.928C8.072 2.608 7.12 2.448 5.95199 2.448H2.99999V14.688ZM20.7043 4.76837e-07H23.8963L30.4963 17.136H27.2803L25.6723 12.6H18.8323L17.2243 17.136H14.1283L20.7043 4.76837e-07ZM19.6483 10.32H24.8803L22.3123 2.952H22.2403L19.6483 10.32ZM30.8801 4.76837e-07H35.1041L39.8321 13.416H39.8801L44.4881 4.76837e-07H48.6641V17.136H45.8081V3.912H45.7601L41.0081 17.136H38.5361L33.7841 3.912H33.7361V17.136H30.8801V4.76837e-07ZM50.8882 13.896H54.2242V17.136H50.8882V13.896ZM56.1519 4.728H58.7439V6.552L58.7919 6.6C59.2079 5.912 59.7519 5.376 60.4239 4.992C61.0959 4.592 61.8399 4.392 62.6559 4.392C64.0159 4.392 65.0879 4.744 65.8719 5.448C66.6559 6.152 67.0479 7.208 67.0479 8.616V17.136H64.3119V9.336C64.2799 8.36 64.0719 7.656 63.6879 7.224C63.3039 6.776 62.7039 6.552 61.8879 6.552C61.4239 6.552 61.0079 6.64 60.6399 6.816C60.2719 6.976 59.9599 7.208 59.7039 7.512C59.4479 7.8 59.2479 8.144 59.1039 8.544C58.9599 8.944 58.8879 9.368 58.8879 9.816V17.136H56.1519V4.728ZM80.2052 16.488C80.2052 18.36 79.6772 19.752 78.6212 20.664C77.5812 21.592 76.0772 22.056 74.1092 22.056C73.4852 22.056 72.8532 21.992 72.2132 21.864C71.5892 21.736 71.0132 21.52 70.4852 21.216C69.9732 20.912 69.5412 20.512 69.1892 20.016C68.8372 19.52 68.6292 18.912 68.5652 18.192H71.3012C71.3812 18.576 71.5172 18.888 71.7092 19.128C71.9012 19.368 72.1252 19.552 72.3812 19.68C72.6532 19.824 72.9492 19.912 73.2692 19.944C73.5892 19.992 73.9252 20.016 74.2772 20.016C75.3812 20.016 76.1892 19.744 76.7012 19.2C77.2132 18.656 77.4692 17.872 77.4692 16.848V14.952H77.4212C77.0372 15.64 76.5092 16.176 75.8372 16.56C75.1812 16.944 74.4692 17.136 73.7012 17.136C72.7092 17.136 71.8612 16.968 71.1572 16.632C70.4692 16.28 69.8932 15.808 69.4292 15.216C68.9812 14.608 68.6532 13.912 68.4452 13.128C68.2372 12.344 68.1332 11.504 68.1332 10.608C68.1332 9.776 68.2612 8.984 68.5172 8.232C68.7732 7.48 69.1412 6.824 69.6212 6.264C70.1012 5.688 70.6852 5.232 71.3732 4.896C72.0772 4.56 72.8692 4.392 73.7492 4.392C74.5332 4.392 75.2532 4.56 75.9092 4.896C76.5652 5.216 77.0692 5.728 77.4212 6.432H77.4692V4.728H80.2052V16.488ZM74.1332 14.976C74.7412 14.976 75.2532 14.856 75.6692 14.616C76.1012 14.36 76.4452 14.032 76.7012 13.632C76.9732 13.216 77.1652 12.752 77.2772 12.24C77.4052 11.712 77.4692 11.184 77.4692 10.656C77.4692 10.128 77.4052 9.616 77.2772 9.12C77.1492 8.624 76.9492 8.184 76.6772 7.8C76.4212 7.416 76.0772 7.112 75.6452 6.888C75.2292 6.664 74.7252 6.552 74.1332 6.552C73.5252 6.552 73.0132 6.68 72.5972 6.936C72.1812 7.192 71.8452 7.528 71.5892 7.944C71.3332 8.344 71.1492 8.808 71.0372 9.336C70.9252 9.848 70.8692 10.36 70.8692 10.872C70.8692 11.384 70.9332 11.888 71.0612 12.384C71.1892 12.864 71.3812 13.296 71.6372 13.68C71.9092 14.064 72.2452 14.376 72.6452 14.616C73.0612 14.856 73.5572 14.976 74.1332 14.976Z" fill="#550E0E"/>
</svg>
